# xmcd CD database file
#
# Track frame offsets:
#	150
#	12008
#	26484
#	39964
#	52030
#	68529
#	81543
#	95475
#	114289
#	126786
#	141968
#	153849
#	167512
#	182089
#	197132
#	210482
#	224584
#	236931
#	250216
#	262925
#
# Disc length: 3696 seconds
#
# Revision: 0
# Processed by: cddbd v1.5.2PL0 Copyright (c) Steve Scherf et al.
# Submitted via: CDex 1.51
#
DISCID=130e6e14
DTITLE=John Lee Hooker - The Definitive Blues Collection - John Lee Hooker
DYEAR=1948
DGENRE=Blues
TTITLE0=Boogie Awhile
TTITLE1=Don't Go Baby
TTITLE2=Drifting From Door To Door
TTITLE3=Find Me A Woman
TTITLE4=Helpless Blues
TTITLE5=Henry's Swing Club
TTITLE6=Highway Blues
TTITLE7=I Feel So Good
TTITLE8=I'm In The Mood
TTITLE9=Just Me And My Telephone
TTITLE10=Let Your Daddy Ride
TTITLE11=Miss Lorraine
TTITLE12=Playing The Races
TTITLE13=Ramblin' By Myself
TTITLE14=She Was In Chicago
TTITLE15=Turn Over A New Leaf
TTITLE16=War Is Over
TTITLE17=Wednesday Evening
TTITLE18=Weeping Willow Boogie
TTITLE19=Women In My Life
EXTD=YEAR: 1948
EXTT0=
EXTT1=
EXTT2=
EXTT3=
EXTT4=
EXTT5=
EXTT6=
EXTT7=
EXTT8=
EXTT9=
EXTT10=
EXTT11=
EXTT12=
EXTT13=
EXTT14=
EXTT15=
EXTT16=
EXTT17=
EXTT18=
EXTT19=
PLAYORDER=
